<svg width="20" height="19" viewBox="0 0 20 19" fill="none" xmlns="http://www.w3.org/2000/svg">
<path fill-rule="evenodd" clip-rule="evenodd" d="M19.6463 17.8439C18.201 15.3452 15.9737 13.5534 13.3744 12.7041C16.0171 11.1308 17.2831 7.98576 16.4672 5.02032C15.6514 2.05489 12.9548 1.30326e-05 9.87919 1.30326e-05C6.80357 1.30326e-05 4.10699 2.05489 3.29113 5.02032C2.47527 7.98576 3.74122 11.1308 6.384 12.7041C3.78467 13.5525 1.55736 15.3442 0.112023 17.8439C-0.0322731 18.0792 -0.0375129 18.3742 0.098338 18.6145C0.234189 18.8547 0.489727 19.0023 0.765722 19C1.04172 18.9976 1.29469 18.8456 1.4264 18.6031C3.21432 15.5131 6.37451 13.6683 9.87919 13.6683C13.3839 13.6683 16.544 15.5131 18.332 18.6031C18.4637 18.8456 18.7167 18.9976 18.9926 19C19.2686 19.0023 19.5242 18.8547 19.66 18.6145C19.7959 18.3742 19.7906 18.0792 19.6463 17.8439ZM4.56476 6.83543C4.56476 3.90035 6.94411 1.521 9.87919 1.521C12.8143 1.521 15.1936 3.90035 15.1936 6.83543C15.1936 9.77051 12.8143 12.1499 9.87919 12.1499C6.94541 12.1467 4.56789 9.76921 4.56476 6.83543Z" fill="#639154"/>
</svg>
